# xmcd CD database file
# Copyright (C) 1995 Ti Kan
#
# Track frame offsets:
#	187
#	18992
#	30575
#	43770
#	45275
#	57297
#	66820
#	67617
#	82355
#	95537
#	112100
#	124515
#	145377
#	162752
#
# Disc length: 2301 seconds
#
# Revision: 1
# Processed by: cddbd v1.4b41PL1 Copyright (c) Steve Scherf et al.
# Submitted via: NotifyCDPlayer(CDDB) 1.07
#
DISCID=b808fb0e
DTITLE=John Denver - Rhymes And Reasons
DYEAR=1900
DGENRE=
TTITLE0=The Love Of The Common People
TTITLE1=Catch Another Butterfly
TTITLE2=Daydream
TTITLE3=The Ballad Of Spiro Agnew
TTITLE4=Circus
TTITLE5=When I'm Sixty-Four
TTITLE6=The Ballad Of Richard Nixon
TTITLE7=Rhymes And Reasons
TTITLE8=Yellow Cat
TTITLE9=Leaving, On A Jet Plane
TTITLE10=My Heart
TTITLE11=My Old Man
TTITLE12=I Wish I Knew How It Would Feel To Be Free
TTITLE13=Today Is The First Day Of The Rest Of My Life
EXTD=
EXTT0=
EXTT1=
EXTT2=
EXTT3=
EXTT4=
EXTT5=
EXTT6=
EXTT7=
EXTT8=
EXTT9=
EXTT10=
EXTT11=
EXTT12=
EXTT13=
PLAYORDER=
